<?xml version="1.0" encoding="UTF-8" standalone="no"?>
<!-- Created with Inkscape (http://www.inkscape.org/) -->

<svg
   xmlns:dc="http://purl.org/dc/elements/1.1/"
   xmlns:cc="http://creativecommons.org/ns#"
   xmlns:rdf="http://www.w3.org/1999/02/22-rdf-syntax-ns#"
   xmlns:svg="http://www.w3.org/2000/svg"
   xmlns="http://www.w3.org/2000/svg"
   xmlns:sodipodi="http://sodipodi.sourceforge.net/DTD/sodipodi-0.dtd"
   xmlns:inkscape="http://www.inkscape.org/namespaces/inkscape"
   width="744.09448819"
   height="1052.3622047"
   id="svg2"
   version="1.1"
   inkscape:version="0.48.5 r10040"
   sodipodi:docname="New document 1">
  <defs
     id="defs4" />
  <sodipodi:namedview
     id="base"
     pagecolor="#ffffff"
     bordercolor="#666666"
     borderopacity="1.0"
     inkscape:pageopacity="0.0"
     inkscape:pageshadow="2"
     inkscape:zoom="0.35"
     inkscape:cx="375"
     inkscape:cy="520"
     inkscape:document-units="px"
     inkscape:current-layer="layer1"
     showgrid="false"
     inkscape:window-width="1280"
     inkscape:window-height="737"
     inkscape:window-x="-8"
     inkscape:window-y="-8"
     inkscape:window-maximized="1" />
  <metadata
     id="metadata7">
    <rdf:RDF>
      <cc:Work
         rdf:about="">
        <dc:format>image/svg+xml</dc:format>
        <dc:type
           rdf:resource="http://purl.org/dc/dcmitype/StillImage" />
        <dc:title></dc:title>
      </cc:Work>
    </rdf:RDF>
  </metadata>
  <g
     inkscape:label="Layer 1"
     inkscape:groupmode="layer"
     id="layer1">
    <path
       style="fill:#000000;fill-opacity:1;fill-rule:nonzero;stroke:none"
       id="path2985"
       d="m 44.887312,630.3209 c 9.028702,-7.08477 16.45382,-15.73959 23.471839,-24.74679 12.424596,-17.94341 21.38547,-37.94779 30.068214,-57.88117 13.218015,-29.50047 21.021895,-60.88273 27.960755,-92.32688 6.15201,-29.96834 8.82624,-60.46387 11.57881,-90.88251 0.69474,-9.91258 1.9076,-19.80992 2.30481,-29.74458 0.0973,-2.43224 0.46482,-7.25275 -0.56746,-9.86379 12.56619,-6.03818 24.73572,-12.98292 37.69855,-18.11454 1.13373,-0.44881 -0.6605,2.35009 -0.89769,3.54613 -0.37574,1.89468 -0.68155,3.80378 -0.93951,5.71806 -1.33303,9.89214 -1.77921,19.85833 -2.31177,29.81564 -1.61451,36.0517 -1.62457,72.13227 -1.05113,108.20583 0.62022,44.53285 1.87321,89.05782 3.90538,133.54865 1.84495,34.96121 5.17002,69.81154 9.76303,104.51308 2.74916,17.07763 4.28856,34.52539 8.65011,51.30793 7.29466,12.57053 2.90605,4.3035 -36.60662,17.62063 -1.34178,0.45222 0.18513,-2.82771 0.18779,-4.24363 0.0143,-7.59119 -0.94015,-15.09393 -1.81909,-22.61867 -3.06003,-23.66854 -8.7539,-46.86321 -16.22366,-69.49807 -6.96118,-19.99197 -16.82069,-38.60375 -30.84117,-54.47848 -8.03257,-7.01862 -16.012017,-14.91874 -27.436417,-12.84971 -12.256423,6.46618 -28.400529,15.01297 31.220497,-17.5799 0.7278,-0.39787 -1.3684,0.9515 -1.96084,1.53202 -0.91246,0.89411 -1.16055,1.82199 -1.26366,2.43727 7.7905,-2.11385 15.47212,-4.53385 22.97228,-7.58426 2.31396,-0.95429 4.64928,-1.85833 6.94186,-2.86286 6.25129,-2.73908 8.93846,-4.1013 14.92425,-7.47736 2.57217,-1.45073 10.20523,-5.94796 7.63706,-4.49016 -27.47217,15.59435 -37.1852,21.89863 -20.29848,11.19878 10.28753,-6.49834 18.44442,-15.69246 28.40292,-22.59805 23.9559,-13.52707 45.51838,-35.95588 44.26426,-5.48342 -1.29776,24.73013 -12.24526,19.8545 -41.48941,36.13707 -12.44059,2.55416 -46.61844,25.17926 30.84105,-18.33089 0.54292,-0.30497 -1.10792,0.59918 -1.5608,1.02657 -1.53886,1.45224 -1.53423,2.30972 -2.26662,4.34909 -0.12033,1.0057 -0.24067,2.01141 -0.36101,3.01711 0,0 -37.65809,18.96838 -37.65809,18.96838 l 0,0 c -0.0162,-1.23966 -0.0324,-2.47932 -0.0485,-3.71898 0.28131,-1.8715 0.52778,-4.31446 1.2308,-6.1281 6.12757,-15.80806 27.55793,-20.83127 43.49665,-25.082 -11.5985,6.78342 -23.31966,13.36135 -34.79551,20.35027 -0.52381,0.31901 1.30136,0.0588 1.82031,-0.26802 3.18944,-2.00892 2.58021,-8.36619 3.1655,-11.39191 0.14957,-2.39745 0.82908,-5.77301 0.19171,-8.173 -0.0801,-0.30175 -0.28057,-0.64234 -0.57811,-0.73691 -0.34683,-0.11025 -1.38357,0.39889 -1.07085,0.21275 11.30629,-6.72962 22.73603,-13.24964 34.10405,-19.87446 -11.19492,5.60999 -18.95916,16.02626 -29.40052,22.81153 -20.72203,13.58707 -6.22741,4.26854 -49.87758,29.5327 -9.70432,5.61674 -19.70562,10.6806 -30.22558,14.60706 -5.806046,2.16482 -18.263804,7.80531 -24.571973,5.29218 -0.939298,-0.37421 -1.663731,-1.14946 -2.495596,-1.72419 -0.450584,-0.75952 -1.065668,-1.44307 -1.351751,-2.27857 -0.700328,-2.04528 -0.136783,-6.56694 1.929953,-7.84231 36.069037,-22.25793 24.286716,-20.05386 42.077097,-22.75773 11.77088,0.8011 20.66436,8.4435 28.69022,16.55676 13.8884,16.63509 23.83017,35.79659 30.90237,56.27719 7.5102,22.79425 13.51135,46.06821 17.22749,69.80186 1.17486,7.53581 2.2325,14.99714 2.87889,22.59543 0.13366,1.57123 1.66568,3.78694 0.39048,4.71459 -11.91425,8.66705 -25.02511,15.58958 -37.97088,22.62336 -0.52785,0.2868 -0.30743,-1.16147 -0.46114,-1.7422 -2.50332,-17.50395 -4.73762,-35.05642 -6.8296,-52.61247 -4.01902,-35.04979 -7.06997,-70.19414 -8.65163,-105.44531 -1.76299,-44.53022 -2.96515,-89.08259 -3.92126,-133.63683 -0.88705,-35.83406 -1.43711,-71.67247 -0.80434,-107.51771 0.24962,-11.77472 0.49714,-23.52443 1.48506,-35.26406 0.10092,-1.19921 -0.69855,-2.95933 0.32276,-3.59588 12.27556,-7.65099 25.51286,-13.63825 38.26929,-20.45737 1.73847,13.22813 -3.2147,28.62743 -3.35212,41.87898 -3.24327,30.6404 -5.96409,61.39765 -12.07959,91.64378 -6.76967,31.49709 -14.26322,62.97946 -26.99167,92.69994 -8.34716,19.96106 -16.90463,39.93414 -28.50802,58.27438 -6.666368,9.08289 -13.657536,17.77543 -22.079121,25.29433 0,0 -39.357297,15.7944 -39.357297,15.7944 z"
       inkscape:connector-curvature="0" />
    <path
       style="fill:#000000;fill-opacity:1;fill-rule:nonzero;stroke:none"
       id="path2987"
       d="m 215.21014,479.85249 c -0.31665,-4.22974 -0.63413,-8.5304 -2.21458,-12.5194 -0.31672,-0.7994 -0.44538,-1.9569 -1.25172,-2.25551 -0.5255,-0.1946 -1.04337,1.83618 -0.53877,1.59246 11.84511,-5.72122 23.33144,-12.15731 34.99716,-18.23596 -0.75189,1.63654 -1.67803,3.20376 -2.25566,4.90962 -5.84227,17.25332 -6.58231,39.3446 -7.28936,57.40582 -0.12011,19.77801 -0.63452,40.4544 7.36558,58.93946 0.92107,1.19867 2.27843,4.25861 4.63087,3.7166 0.81692,-0.18822 2.69562,-1.97488 1.95498,-1.58213 -11.31344,5.99932 -22.30305,12.60644 -33.7119,18.42227 -1.24834,0.63636 2.18888,-1.77137 3.11341,-2.82424 1.15473,-1.31501 2.06151,-2.82857 3.09227,-4.24285 5.32235,-8.3574 9.25495,-17.57751 15.64357,-25.22071 33.74196,-19.17916 38.13214,-34.76597 45.75885,-7.24094 2.05622,5.42471 2.60546,8.56113 7.8307,4.11757 24.99579,-14.7025 -43.93246,27.06287 -24.50676,13.62188 1.10699,-0.76594 2.16511,-1.60985 3.3291,-2.28602 13.10535,-7.61305 26.31207,-15.05025 39.46811,-22.57538 6.36024,-3.54936 13.21564,-1.62534 19.99153,-2.24634 3.87827,-0.40559 1.93943,-0.20891 5.81651,-0.59007 0,0 -33.96058,25.14476 -33.96058,25.14476 l 0,0 c -3.92887,0.32443 -1.9512,0.18941 -5.93314,0.40313 -6.61915,-0.0781 -12.83238,0.0113 -18.71376,3.60834 10.83963,-6.32175 21.6825,-12.63792 32.51888,-18.96523 1.1335,-0.66185 -2.32412,1.23174 -3.41021,1.96881 -1.0489,0.71183 -1.89121,1.71224 -2.97725,2.366 -13.58957,8.18042 -29.18798,19.03875 -44.95495,25.64825 -7.49744,0.64587 -9.19787,-3.6864 -11.51941,-10.07734 -0.73692,-2.67424 -1.33681,-5.84219 -2.61078,-8.33379 -0.15975,-0.31244 -0.38779,-0.70463 -0.73529,-0.75337 -0.28508,-0.04 -0.90754,0.70359 -0.65936,0.55773 11.49163,-6.75372 22.93353,-13.5917 34.40029,-20.38756 -8.23617,5.80909 -11.36637,16.1898 -16.54851,24.42334 -10.37974,18.62853 -14.9883,15.87569 -44.55734,30.82833 -3.37694,1.70766 -8.16189,-5.18899 -9.09224,-7.19227 -7.34667,-19.468 -6.86562,-40.67147 -6.73448,-61.19413 0.51326,-21.34163 1.84179,-42.74787 6.45826,-63.65162 35.50921,-21.17151 40.47193,-36.73895 45.2736,-5.06482 0,0 -37.46762,19.76531 -37.46762,19.76531 z"
       inkscape:connector-curvature="0" />
    <path
       style="fill:#000000;fill-opacity:1;fill-rule:nonzero;stroke:none"
       id="path2989"
       d="m 390.04592,462.87412 c -3.34155,15.00469 -4.22324,30.36632 -5.53849,45.63547 -1.7476,17.96475 -2.53246,35.99667 -2.91989,54.03533 0.14613,6.10476 -0.5538,12.28075 0.32642,18.34677 0,0 -37.47453,19.67259 -37.47453,19.67259 l 0,0 c -0.67311,-6.42857 0.33381,-12.91275 0.26848,-19.36551 0.68316,-18.16486 1.69872,-36.31586 3.20821,-54.43223 1.25065,-15.06773 1.73259,-30.21796 4.21157,-45.16236 0,0 37.91823,-18.73006 37.91823,-18.73006 z"
       inkscape:connector-curvature="0" />
    <path
       style="fill:#000000;fill-opacity:1;fill-rule:nonzero;stroke:none"
       id="path2991"
       d="m 267.95281,398.58405 c 12.83752,-14.35663 26.34511,-28.09713 40.06141,-41.60962 21.30518,-21.50498 45.01728,-40.30376 69.97643,-57.34496 31.7866,-18.59935 63.19839,-39.78586 98.88138,-50.37171 3.83389,-1.13738 7.76975,-1.8974 11.65463,-2.84609 14.74803,-2.75016 31.55726,-4.25873 44.86295,4.26927 2.20834,1.41539 4.09791,3.2753 6.14686,4.91295 14.68514,15.09213 17.03432,36.04695 18.03365,56.11125 0.48457,29.07619 -7.22348,56.47728 -17.66375,83.30822 -12.39126,28.96069 -32.01804,53.25206 -53.73415,75.66846 -21.20153,20.95908 -45.02284,38.88199 -69.38444,55.94623 -15.36085,10.93176 -31.6446,20.46005 -47.22757,31.0546 -0.9595,-0.86647 -10.72577,8.45664 -11.58903,8.57524 -0.25221,0.0347 -1.13135,-2.72933 -1.64193,-4.16983 10.32543,-10.7866 0.73068,-0.5461 -33.57722,18.62869 -0.7447,0.41622 1.39064,-0.99136 2.04637,-1.5371 2.41131,-2.00685 4.63205,-4.24492 7.02557,-6.27821 14.00507,-12.002 30.41428,-19.45597 47.00838,-28.23235 0.92834,-0.49098 2.09746,-0.39701 3.13934,-0.26529 1.25408,0.15855 2.41531,0.74681 3.62296,1.12022 12.72537,9.07385 17.08599,26.18898 21.62865,40.3448 7.1904,25.86538 11.71123,52.41138 15.33622,78.98498 0.56914,4.30167 1.13827,8.60334 1.70741,12.90502 0,0 -35.56779,18.70267 -35.56779,18.70267 l 0,0 c -0.54448,-4.31017 -1.08897,-8.62033 -1.63345,-12.93049 -3.37358,-26.31247 -7.82313,-52.62562 -15.39724,-78.08597 -3.32442,-9.67658 -8.74831,-28.06345 -17.64616,-34.35364 -0.87015,-0.61514 -1.95327,-0.85264 -2.9299,-1.27896 -0.92359,0.0527 -1.86585,-0.0341 -2.77076,0.1581 -0.88691,0.18837 -3.31924,1.43568 -2.54122,0.97009 61.42776,-36.7603 37.12015,-23.20022 25.16392,-13.83494 -14.66785,12.04632 -28.08337,29.1494 -48.8372,30.48546 -0.39691,-0.42883 -3.72579,-2.97546 -3.27378,-4.77799 0.83382,-3.32508 9.65285,-8.16564 12.08986,-9.95466 15.87389,-10.97494 32.72709,-20.43427 48.52087,-31.53725 24.59063,-16.92886 48.68568,-34.64796 70.18606,-55.46396 21.77804,-21.88298 41.42398,-45.72524 54.17695,-74.13469 1.85976,-4.60668 3.88708,-9.14921 5.57928,-13.82005 7.84753,-21.66087 12.31888,-44.64187 12.31427,-67.69558 -0.93538,-18.7834 -3.0657,-38.64585 -17.12106,-52.56498 -1.8857,-1.39184 -3.62887,-3.00105 -5.6571,-4.17552 -12.84207,-7.43637 -28.72736,-5.20941 -42.50368,-2.4804 -12.49466,3.32025 -24.26382,7.38891 -36.07152,12.72249 -4.3904,1.98316 -16.77098,9.28623 -13.03216,6.24818 6.27232,-5.09669 13.92802,-8.20783 20.75913,-12.52687 4.30816,-2.72387 -8.79176,5.15981 -13.18764,7.73972 -24.93837,16.62489 -48.62583,35.10451 -69.73686,56.45709 -13.22437,13.00688 -26.17512,26.3271 -38.25636,40.41248 0,0 -38.94058,16.5449 -38.94058,16.5449 z"
       inkscape:connector-curvature="0" />
    <path
       style="fill:#000000;fill-opacity:1;fill-rule:nonzero;stroke:none"
       id="path2993"
       d="m 439.21651,545.60469 c 7.29548,-0.84563 13.80365,-4.34501 20.22725,-7.63755 5.8821,-1.48941 9.05693,-1.02696 14.39482,-4.42639 -62.71372,34.93252 -36.21847,24.10421 -26.50206,12.90413 4.19198,-4.83208 7.00955,-10.36355 9.91221,-16.01077 8.82497,-16.0257 14.26349,-33.35113 19.15909,-50.87648 4.19042,-17.29041 7.14589,-34.99573 8.46152,-52.74795 5.01537,-0.8748 -2.18409,-5.87253 -0.28299,-7.49752 0.63668,-0.54422 -0.33423,2.81126 0.43295,2.47514 12.06765,-5.28715 22.80657,-13.47181 35.15435,-18.06687 1.94776,-0.72483 -1.60661,3.83906 -2.24028,5.81835 -0.96037,2.99972 -1.69105,6.06819 -2.53657,9.10229 -7.40314,30.37278 -11.69571,61.33966 -14.62604,92.42508 -0.63502,12.75207 -1.59065,25.75752 0.30434,38.4726 0.59114,3.96644 1.7066,9.14715 4.45486,12.4424 0.73799,0.88486 1.94126,1.24175 2.91189,1.86263 11.48142,-4.80512 37.21946,-15.68859 -29.71659,16.32019 -1.85906,0.889 3.22714,-2.59376 4.59812,-4.13222 5.65491,-6.34571 9.0415,-14.3063 12.59143,-21.89827 7.16282,-15.9672 11.23261,-33.03657 15.45786,-49.94819 5.12602,-21.6469 -1.93286,-10.5607 39.9414,-26.98247 0.78486,-0.3078 -0.17165,1.67743 -0.24292,2.51746 -0.0944,1.11224 -0.16929,2.22604 -0.25394,3.33907 -1.21371,0.88336 0.56618,18.40082 3.33137,10.12105 -11.35976,6.28787 -22.37785,13.23707 -34.07929,18.86361 -1.4448,0.69471 2.04888,-2.48208 2.87193,-3.85782 1.13456,-1.89643 2.10523,-3.89288 2.97931,-5.92257 4.18986,-9.72919 6.66904,-20.06629 9.33918,-30.27557 6.90508,-28.18946 10.40478,-57.06278 13.88932,-85.83228 0.25164,-3.1842 0.61952,-6.36136 0.75491,-9.55262 0.61804,-14.56806 -11.96332,-13.25111 36.29568,-18.88074 3.55843,-0.41511 -1.27658,7.05252 -1.76975,10.60098 -0.70998,5.10853 -1.22584,10.24216 -1.83877,15.36324 -5.54331,45.57679 -6.33706,91.50931 -4.71833,137.33784 0.79074,16.43234 1.79385,32.88747 4.58884,49.12154 0.85676,4.97633 1.66747,12.13143 4.8239,16.48008 -12.41336,6.05546 -24.43518,12.99004 -37.24009,18.16639 -1.08901,0.44023 0.70762,-2.26179 0.79417,-3.43322 0.15594,-2.11057 0.0389,-4.23512 -0.0715,-6.34857 -0.53694,-10.28558 -2.2428,-20.35929 -4.03014,-30.48302 -4.76156,-22.48778 -9.65772,-45.08353 -17.991,-66.5574 -2.04903,-3.41373 -4.02951,-10.59555 -8.79553,-11.84741 -1.69344,-0.44481 -6.09667,3.44431 -4.54569,2.63189 11.30131,-5.91967 22.31669,-12.36989 33.47504,-18.55483 -4.70874,5.52148 -7.77222,13.29973 -5.14054,20.5071 0.51857,1.42021 1.39443,2.68314 2.09164,4.02471 1.1243,1.23575 2.0777,2.65197 3.37289,3.70724 8.82138,7.18732 25.44599,10.90691 36.24699,13.60229 14.98091,3.82664 30.72348,5.16871 44.61258,12.35269 9.28803,7.3464 4.6194,14.71097 -1.15753,22.53594 -7.44708,9.34091 -16.0432,17.66348 -24.09375,26.46516 -0.31796,0.93205 -5.32057,5.25047 -3.7902,6.96265 0.7617,0.85217 1.96929,1.16266 2.98131,1.69388 6.47305,3.15761 12.62837,6.67104 18.4075,10.98904 5.56273,4.98468 10.89472,11.45662 10.05902,19.4866 -0.19495,1.87314 -0.92838,3.65031 -1.39256,5.47547 -9.17379,16.20903 -25.7908,26.99672 -41.47282,36.29034 -16.5007,9.77878 -33.21241,19.19703 -49.81862,28.79555 -49.72661,27.64965 -103.11023,47.73839 -156.24874,67.68191 -59.80044,22.24319 -120.39746,42.57007 -178.93888,68.06744 -11.05136,4.81336 -21.90581,10.06677 -32.85871,15.10015 -13.49978,6.9253 -42.69491,21.24153 -55.7334,30.35887 -3.25414,2.2755 13.01446,-8.03342 10.97815,-4.6245 -3.28361,5.49698 -10.32428,7.59268 -15.21786,11.72205 -9.64283,8.13696 -8.24333,6.98549 -13.465132,15.29482 0.459868,0.23294 0.875781,0.8079 1.379605,0.69881 2.340137,-0.50668 4.500667,-1.63579 6.749127,-2.45883 4.58905,-1.67979 9.26062,-3.15068 13.7634,-5.04964 18.2964,-7.71615 28.72725,-13.68408 47.03356,-23.19093 0,0 -28.49315,22.87239 -28.49315,22.87239 l 0,0 c -16.66083,8.73017 -32.44243,17.61559 -49.838881,24.70773 -5.631223,2.29572 -18.070774,7.99239 -25.503405,4.46138 -1.827445,-0.86816 -1.875338,-3.58555 -2.813007,-5.37832 1.507752,-2.47904 2.628895,-5.23931 4.523256,-7.4371 5.912814,-6.85993 20.047033,-18.16753 26.750387,-22.51086 34.67568,-22.46757 70.41799,-43.5968 107.67079,-61.52645 10.87372,-4.91471 21.65896,-10.03005 32.62115,-14.74411 58.83119,-25.29914 119.58405,-45.72222 179.45264,-68.34357 53.99846,-20.61735 108.20014,-41.50572 158.51705,-70.2562 -5.80727,3.37559 -11.21777,7.55209 -17.42181,10.12677 -4.77997,1.98369 8.8028,-5.44905 13.09989,-8.33317 10.2251,-6.86288 20.34685,-14.33016 27.42819,-24.57267 0.62829,-1.38883 1.49184,-2.6937 1.88487,-4.1665 1.78369,-6.68405 -3.58703,-12.15961 -8.21883,-16.00762 -5.81772,-4.12027 -12.09664,-7.29382 -18.41428,-10.56484 -6.93874,-4.64653 -7.43821,-8.77782 -2.19307,-15.41327 7.84918,-8.92259 16.69061,-16.94321 24.21741,-26.16542 2.3103,-2.90539 8.04992,-7.86879 7.70541,-12.1458 -0.16066,-1.99461 -1.7618,-2.75837 -3.11537,-3.9368 -13.48976,-6.86735 -28.86186,-8.1899 -43.32063,-12.09919 -12.29381,-3.18811 -28.42755,-6.59523 -38.26227,-15.21895 -1.51057,-1.32457 -2.64879,-3.02144 -3.97319,-4.53216 -0.86844,-1.62891 -1.91951,-3.1729 -2.60531,-4.88673 -3.26052,-8.14816 -1.16814,-16.9227 3.0697,-24.25229 12.84969,-7.92004 25.43507,-16.28585 38.54907,-23.76012 1.05057,-0.59877 2.42458,-0.47094 3.61742,-0.27252 7.16703,1.19224 9.93157,10.29328 12.47713,15.73251 7.60481,21.99392 12.58982,44.76967 17.76577,67.4309 2.53237,12.2589 4.66989,24.48309 5.95265,36.93878 0.16182,1.57124 1.77857,3.84182 0.46296,4.71597 -12.0558,8.0104 -25.54313,13.62291 -38.31469,20.43437 -2.22872,-5.9613 -2.8423,-12.50099 -3.57272,-18.7803 -1.94353,-16.70827 -2.69902,-33.51355 -3.06656,-50.32362 -1.14589,-45.71507 -0.33346,-91.46747 3.16737,-137.07823 0.30162,-5.01284 0.57469,-10.02748 0.90486,-15.03852 0.22431,-3.40447 -1.76965,-7.91633 0.75853,-10.20741 42.4924,-38.50738 39.95555,-34.58377 36.50621,-7.77557 -4.15809,28.7721 -7.40508,57.72623 -13.56727,86.16295 -2.34782,10.21338 -4.57328,20.52476 -7.98451,30.45558 -0.29813,0.8679 -4.02281,10.40658 -4.61685,10.81632 -12.35387,8.52127 -25.63777,15.60851 -38.45666,23.41276 -0.90599,-0.30342 -1.89793,-0.41992 -2.71797,-0.91024 -5.31398,-3.17739 -4.77967,-11.05926 -4.71402,-16.29765 0.0314,-1.41462 0.12275,-5.74536 0.14239,-5.75711 42.00552,-25.1318 41.84575,-32.27348 35.45994,-9.9337 -4.6589,17.07411 -8.76283,34.3947 -15.59429,50.76928 -2.48211,5.75265 -4.5318,10.88854 -7.53413,16.3827 -9.64425,17.64868 -31.82272,39.8386 -52.80349,32.61096 -1.1533,-1.17001 -2.55784,-2.13696 -3.45989,-3.51003 -8.56014,-13.0299 -4.04587,-39.35109 -3.9346,-53.93054 3.03298,-30.94581 7.18554,-61.74799 13.06779,-92.29302 0.61458,-3.02382 1.18522,-6.05689 1.84373,-9.07145 0.44516,-2.03784 -0.18913,-4.81487 1.46673,-6.08335 1.02446,-0.7848 34.39066,-35.42539 40.22326,-21.48805 0.64877,1.55026 -0.0388,7.82423 -0.0911,8.59485 -1.66185,18.04694 -4.70333,36.04244 -8.70606,53.70727 -4.70442,17.59565 -9.66577,35.135 -18.27332,51.30826 -13.2893,28.87154 -19.47885,27.36545 -54.11942,46.64027 -4.70336,1.85285 -9.81328,1.91297 -14.31609,4.32972 -6.79528,3.28697 -13.99195,6.0605 -21.63294,6.25125 0,0 34.33186,-24.94356 34.33186,-24.94356 z"
       inkscape:connector-curvature="0" />
  </g>
</svg>
